<svg width="14" height="12" viewBox="0 0 36 32" fill="none" xmlns="http://www.w3.org/2000/svg">
<path id="Vector" d="M32.4 3.55556H26.694L23.4 0H12.6L9.306 3.55556H3.6C2.64522 3.55556 1.72955 3.93016 1.05442 4.59695C0.379284 5.26375 0 6.16812 0 7.11111V28.4444C0 29.3874 0.379284 30.2918 1.05442 30.9586C1.72955 31.6254 2.64522 32 3.6 32H32.4C33.3548 32 34.2705 31.6254 34.9456 30.9586C35.6207 30.2918 36 29.3874 36 28.4444V7.11111C36 6.16812 35.6207 5.26375 34.9456 4.59695C34.2705 3.93016 33.3548 3.55556 32.4 3.55556ZM32.4 28.4444H3.6V7.11111H10.89L14.184 3.55556H21.816L25.11 7.11111H32.4V28.4444ZM18 8.88889C15.6131 8.88889 13.3239 9.82539 11.636 11.4924C9.94821 13.1594 9 15.4203 9 17.7778C9 20.1353 9.94821 22.3962 11.636 24.0632C13.3239 25.7302 15.6131 26.6667 18 26.6667C20.3869 26.6667 22.6761 25.7302 24.364 24.0632C26.0518 22.3962 27 20.1353 27 17.7778C27 15.4203 26.0518 13.1594 24.364 11.4924C22.6761 9.82539 20.3869 8.88889 18 8.88889ZM18 23.1111C16.5678 23.1111 15.1943 22.5492 14.1816 21.549C13.1689 20.5488 12.6 19.1923 12.6 17.7778C12.6 16.3633 13.1689 15.0067 14.1816 14.0065C15.1943 13.0063 16.5678 12.4444 18 12.4444C19.4322 12.4444 20.8057 13.0063 21.8184 14.0065C22.8311 15.0067 23.4 16.3633 23.4 17.7778C23.4 19.1923 22.8311 20.5488 21.8184 21.549C20.8057 22.5492 19.4322 23.1111 18 23.1111Z" fill="#228A88"/>
</svg>
