<svg width="33" height="32" viewBox="0 0 33 32" fill="none" xmlns="http://www.w3.org/2000/svg">
<path d="M16.1992 0C14.0981 0 12.0175 0.424127 10.0763 1.24817C8.13507 2.0722 6.37125 3.28001 4.88551 4.80264C1.88493 7.87772 0.199219 12.0484 0.199219 16.3972C0.199219 23.6448 4.79122 29.7938 11.1432 31.9746C11.9432 32.1058 12.1992 31.5975 12.1992 31.1547C12.1992 30.7776 12.1992 29.7446 12.1992 28.3836C7.76722 29.3674 6.82322 26.1864 6.82322 26.1864C6.08722 24.2843 5.04722 23.776 5.04722 23.776C3.59122 22.7594 5.15922 22.7922 5.15922 22.7922C6.75922 22.9069 7.60722 24.4811 7.60722 24.4811C8.99922 26.9734 11.3512 26.2356 12.2632 25.842C12.4072 24.7762 12.8232 24.0547 13.2712 23.6448C9.71922 23.2349 5.99122 21.8247 5.99122 15.5774C5.99122 13.7573 6.59922 12.2979 7.63922 11.1337C7.47922 10.7238 6.91922 9.01848 7.79922 6.80485C7.79922 6.80485 9.14322 6.36213 12.1992 8.47737C13.4632 8.11663 14.8392 7.93626 16.1992 7.93626C17.5592 7.93626 18.9352 8.11663 20.1992 8.47737C23.2552 6.36213 24.5992 6.80485 24.5992 6.80485C25.4792 9.01848 24.9192 10.7238 24.7592 11.1337C25.7992 12.2979 26.4072 13.7573 26.4072 15.5774C26.4072 21.8411 22.6632 23.2185 19.0952 23.6284C19.6712 24.1367 20.1992 25.137 20.1992 26.6619C20.1992 28.8591 20.1992 30.63 20.1992 31.1547C20.1992 31.5975 20.4552 32.1222 21.2712 31.9746C27.6232 29.7774 32.1992 23.6448 32.1992 16.3972C32.1992 14.2439 31.7854 12.1117 30.9813 10.1223C30.1772 8.13288 28.9987 6.32526 27.5129 4.80264C26.0272 3.28001 24.2634 2.0722 22.3222 1.24817C20.3809 0.424127 18.3004 0 16.1992 0Z" fill="#EBEBEB"/>
</svg>
