<svg width="33" height="32" viewBox="0 0 33 32" fill="none" xmlns="http://www.w3.org/2000/svg">
<path d="M9.88156 0H23.3216C28.4416 0 32.6016 4.16 32.6016 9.28V22.72C32.6016 25.1812 31.6239 27.5416 29.8835 29.282C28.1432 31.0223 25.7828 32 23.3216 32H9.88156C4.76156 32 0.601562 27.84 0.601562 22.72V9.28C0.601563 6.81879 1.57927 4.45839 3.31961 2.71805C5.05995 0.977712 7.42035 0 9.88156 0ZM9.56156 3.2C8.03392 3.2 6.56884 3.80686 5.48863 4.88707C4.40842 5.96728 3.80156 7.43235 3.80156 8.96V23.04C3.80156 26.224 6.37756 28.8 9.56156 28.8H23.6416C25.1692 28.8 26.6343 28.1931 27.7145 27.1129C28.7947 26.0327 29.4016 24.5676 29.4016 23.04V8.96C29.4016 5.776 26.8256 3.2 23.6416 3.2H9.56156ZM25.0016 5.6C25.532 5.6 26.0407 5.81071 26.4158 6.18579C26.7908 6.56086 27.0016 7.06957 27.0016 7.6C27.0016 8.13043 26.7908 8.63914 26.4158 9.01421C26.0407 9.38929 25.532 9.6 25.0016 9.6C24.4711 9.6 23.9624 9.38929 23.5873 9.01421C23.2123 8.63914 23.0016 8.13043 23.0016 7.6C23.0016 7.06957 23.2123 6.56086 23.5873 6.18579C23.9624 5.81071 24.4711 5.6 25.0016 5.6ZM16.6016 8C18.7233 8 20.7581 8.84286 22.2584 10.3431C23.7587 11.8434 24.6016 13.8783 24.6016 16C24.6016 18.1217 23.7587 20.1566 22.2584 21.6569C20.7581 23.1571 18.7233 24 16.6016 24C14.4798 24 12.445 23.1571 10.9447 21.6569C9.44442 20.1566 8.60156 18.1217 8.60156 16C8.60156 13.8783 9.44442 11.8434 10.9447 10.3431C12.445 8.84286 14.4798 8 16.6016 8ZM16.6016 11.2C15.3285 11.2 14.1076 11.7057 13.2074 12.6059C12.3073 13.5061 11.8016 14.727 11.8016 16C11.8016 17.273 12.3073 18.4939 13.2074 19.3941C14.1076 20.2943 15.3285 20.8 16.6016 20.8C17.8746 20.8 19.0955 20.2943 19.9957 19.3941C20.8959 18.4939 21.4016 17.273 21.4016 16C21.4016 14.727 20.8959 13.5061 19.9957 12.6059C19.0955 11.7057 17.8746 11.2 16.6016 11.2Z" fill="#EBEBEB"/>
</svg>
